<?xml version="1.0" encoding="UTF-8"?>
<svg version="1.1" xmlns="http://www.w3.org/2000/svg" width="500" height="500">
<path d="M0 0 C165 0 330 0 500 0 C500 165 500 330 500 500 C335 500 170 500 0 500 C0 335 0 170 0 0 Z " fill="#000000" transform="translate(0,0)"/>
<path d="M0 0 C0.33 0.66 0.66 1.32 1 2 C0.67 2.66 0.34 3.32 0 4 C-0.19371363 6.26860187 -0.3171288 8.53438563 -0.42578125 10.80859375 C-1 13 -1 13 -2.96484375 14.3984375 C-5.84988043 16.66881185 -5.78915671 18.61596451 -6.25 22.1875 C-6.39953125 23.27417969 -6.5490625 24.36085937 -6.703125 25.48046875 C-6.85007812 26.72763672 -6.85007812 26.72763672 -7 28 C-6.05125 27.34 -5.1025 26.68 -4.125 26 C-1 24 -1 24 1 24 C1.33 23.01 1.66 22.02 2 21 C2.66 21 3.32 21 4 21 C4.38063221 18.6739143 4.71269945 16.33944736 5 14 C4.67 13.67 4.34 13.34 4 13 C3.92773498 11.14712498 3.9161878 9.29166122 3.9375 7.4375 C3.94652344 6.42558594 3.95554687 5.41367188 3.96484375 4.37109375 C3.98224609 3.19740234 3.98224609 3.19740234 4 2 C11.9611821 4.53064725 19.72756707 7.51713979 27.50341797 10.56079102 C29.00675324 11.14745445 30.511658 11.73011113 32.01806641 12.30883789 C34.21863943 13.154276 36.41437022 14.01131813 38.609375 14.87109375 C39.6110672 15.25254799 39.6110672 15.25254799 40.63299561 15.64170837 C44.64852809 17.23380852 47.88741465 18.98331653 51 22 C51.85463487 27.69061754 50.13524221 32.49882696 48.3125 37.8125 C47.75117257 39.51212043 47.19263825 41.21266555 46.63671875 42.9140625 C46.217854 44.19458496 46.217854 44.19458496 45.79052734 45.50097656 C44.62036697 49.20009997 43.6219395 52.93875186 42.625 56.6875 C40.41123639 64.90495392 37.73185684 72.939812 35.00561523 80.99951172 C32.69867461 87.84108138 30.54303322 94.70698258 28.50463867 101.63256836 C25.45530039 111.93914948 22.19227664 122.17936792 18.95776367 132.42895508 C16.65001772 139.74292995 14.35609987 147.06025628 12.10791016 154.39282227 C10.71415657 158.93066034 9.31047316 163.4653926 7.90625 168 C7.63036041 168.89106949 7.35447083 169.78213898 7.07022095 170.70021057 C5.92570262 174.39653951 4.78095922 178.09279873 3.63623047 181.7890625 C1.99069321 187.1026791 0.34618126 192.41661111 -1.2973938 197.73083496 C-1.908812 199.70549558 -2.52244906 201.6794689 -3.13647461 203.65332031 C-4.69635923 208.68301028 -6.21765339 213.72030928 -7.67385864 218.78112793 C-8.43801557 221.43668079 -9.20990406 224.08996192 -9.98217773 226.74316406 C-10.37493245 228.10136506 -10.76348734 229.4607864 -11.14819336 230.82128906 C-11.71367461 232.81666044 -12.29466504 234.8069284 -12.87890625 236.796875 C-13.38272827 238.55016113 -13.38272827 238.55016113 -13.89672852 240.33886719 C-14.4428479 241.65612793 -14.4428479 241.65612793 -15 243 C-15.99 243.33 -16.98 243.66 -18 244 C-18.33 244.99 -18.66 245.98 -19 247 C-18.34 247.33 -17.68 247.66 -17 248 C-18.99248936 255.7776997 -21.34833519 263.42515617 -23.80493164 271.06616211 C-25.39007783 276.00501416 -26.86473253 280.94329483 -28.06640625 285.9921875 C-29.61209782 289.31639448 -30.99384647 290.8160741 -34 293 C-37.96716046 293.80375928 -41.89948368 293.79345812 -45.9375 293.8125 C-47.13503906 293.83401123 -48.33257812 293.85552246 -49.56640625 293.87768555 C-52.22832334 293.91885788 -54.88829605 293.94942813 -57.55029297 293.96484375 C-61.5512609 293.99003324 -65.55042835 294.06222687 -69.55067444 294.14009094 C-73.01217332 294.20297944 -76.47371148 294.24528697 -79.93557739 294.28207397 C-81.64160934 294.30231548 -83.34758262 294.32835336 -85.05343628 294.36026001 C-87.46300243 294.40198117 -89.8713669 294.41725368 -92.28125 294.42578125 C-93.00300919 294.44322388 -93.72476837 294.4606665 -94.46839905 294.4786377 C-97.88187546 294.46408948 -99.67513477 294.24986856 -102.41650391 292.14135742 C-104.39617513 289.46425346 -105.0731791 287.23782917 -105.875 284 C-106.03589111 283.35595215 -106.19678223 282.7119043 -106.36254883 282.04833984 C-108.52608616 273.17451137 -110.35290984 264.21712489 -112.23828125 255.28125 C-114.0387893 246.75484437 -115.91914311 238.24640356 -117.79833984 229.73706055 C-121.18108308 214.41446532 -124.48261034 199.07734533 -127.69033813 183.71716309 C-129.73712507 173.91775232 -131.84739991 164.13806851 -134.0625 154.375 C-136.82887196 142.15748876 -139.21843361 129.87383113 -141.55297852 117.56787109 C-141.83052956 116.11028252 -142.10843551 114.65276147 -142.38671875 113.1953125 C-142.52028275 112.49485809 -142.65384674 111.79440369 -142.79145813 111.07272339 C-143.85874996 105.55389921 -145.11138992 100.08966971 -146.46020508 94.63232422 C-147 92 -147 92 -147 88 C-146.01 88 -145.02 88 -144 88 C-144 87.34 -144 86.68 -144 86 C-145.32 86 -146.64 86 -148 86 C-148.36967896 84.22677368 -148.36967896 84.22677368 -148.74682617 82.41772461 C-149.68422251 77.92262029 -150.62299531 73.4278042 -151.56204224 68.93304443 C-151.9780445 66.94065848 -152.39363483 64.94818646 -152.80880737 62.95562744 C-155.68188939 49.13091189 -155.68188939 49.13091189 -158.7109375 35.33984375 C-158.94530518 34.30029541 -159.17967285 33.26074707 -159.42114258 32.18969727 C-159.83180111 30.38745813 -160.25019397 28.58695315 -160.6784668 26.78881836 C-163.21515582 15.64627811 -163.21515582 15.64627811 -162 11 C-160.25805664 8.27734375 -160.25805664 8.27734375 -157 6 C-152.81553273 5.24760466 -148.67969268 5.29965692 -144.4375 5.3359375 C-143.21345459 5.33115387 -141.98940918 5.32637024 -140.72827148 5.32144165 C-138.1427278 5.31804222 -135.55714116 5.32724737 -132.97167969 5.34814453 C-129.01399904 5.37490534 -125.05915492 5.34839375 -121.1015625 5.31640625 C-118.58853541 5.31971034 -116.07551008 5.32611653 -113.5625 5.3359375 C-112.37906006 5.32581635 -111.19562012 5.31569519 -109.97631836 5.30526733 C-101.80021912 5.4219218 -101.80021912 5.4219218 -97.79345703 8.31640625 C-95.59067376 11.6124849 -94.64883025 14.79499543 -93.875 18.625 C-93.55592381 20.05236026 -93.23560553 21.47944342 -92.9140625 22.90625 C-92.76227539 23.60234375 -92.61048828 24.2984375 -92.45410156 25.015625 C-91.82806103 27.75135483 -91.04130777 30.43307451 -90.25 33.125 C-89.21140634 36.84709511 -88.68416015 40.10464186 -89 44 C-89.66 44 -90.32 44 -91 44 C-91 44.66 -91 45.32 -91 46 C-89.02 46.495 -89.02 46.495 -87 47 C-86.72905518 48.22009766 -86.72905518 48.22009766 -86.45263672 49.46484375 C-83.22607559 63.96092889 -79.95487488 78.42991195 -76.27978516 92.82006836 C-73.77896339 102.69756457 -71.56099276 112.63634146 -69.359375 122.58398438 C-69.0809375 123.83630859 -68.8025 125.08863281 -68.515625 126.37890625 C-68.27102539 127.4882251 -68.02642578 128.59754395 -67.77441406 129.74047852 C-67.21904149 132.07805079 -66.58811941 134.39816315 -65.90917969 136.70288086 C-65.00771969 139.97200471 -64.91984752 142.63359571 -65 146 C-64.67 146.33 -64.34 146.66 -64 147 C-62.63109494 150.6235722 -62 153.07793091 -62 157 C-61.34 157 -60.68 157 -60 157 C-59.88140625 155.97648438 -59.7628125 154.95296875 -59.640625 153.8984375 C-59.03184303 150.1937765 -58.08756293 147.12128791 -56.75 143.625 C-54.87064081 138.5223524 -53.18307529 133.41700323 -51.6875 128.1875 C-49.44037568 120.37936421 -46.99658526 112.64429648 -44.50463867 104.91113281 C-42.27474816 97.9872998 -40.06518648 91.05757975 -37.875 84.12109375 C-27.71444612 51.95284885 -27.71444612 51.95284885 -22.54394531 36.67504883 C-20.64219326 31.02684524 -18.89097572 25.3541208 -17.25 19.625 C-10.82814936 -2.65596116 -10.82814936 -2.65596116 0 0 Z " fill="#FCFCFC" transform="translate(308,125)"/>
<path d="M0 0 C3 1 3 1 5 4 C5.5028576 6.56660844 5.93031829 9.10323741 6.3125 11.6875 C7.89953489 21.54410132 10.77109729 30.80015117 14.14453125 40.18359375 C15.29701958 43.97785899 15.13598937 47.05630841 15 51 C14.01 51 13.02 51 12 51 C11.80889648 50.175 11.61779297 49.35 11.42089844 48.5 C6.73027538 28.17900534 6.73027538 28.17900534 1.7265625 7.93359375 C1.07396547 5.29864554 0.50647074 2.66641949 0 0 Z " fill="#222222" transform="translate(192,310)"/>
<path d="M0 0 C3 1 3 1 5 4 C5.59866763 6.73553868 6.11401905 9.42779975 6.5625 12.1875 C6.68818359 12.91775391 6.81386719 13.64800781 6.94335938 14.40039062 C7.76437097 19.25338586 8.41884153 24.11273404 9 29 C8.34 29 7.68 29 7 29 C4.08353676 19.39195614 1.82408865 9.86666131 0 0 Z " fill="#131313" transform="translate(192,310)"/>
<path d="M0 0 C5.61 0 11.22 0 17 0 C16.67 0.99 16.34 1.98 16 3 C13.72979256 3.19493195 11.45879711 3.38070418 9.1875 3.5625 C7.92292969 3.66691406 6.65835938 3.77132812 5.35546875 3.87890625 C2 4 2 4 -1 3 C-0.67 2.01 -0.34 1.02 0 0 Z " fill="#2B2B2B" transform="translate(181,176)"/>
</svg>
